<?xml version="1.0" standalone="no"?>
<!DOCTYPE svg PUBLIC "-//W3C//DTD SVG 20010904//EN"
 "http://www.w3.org/TR/2001/REC-SVG-20010904/DTD/svg10.dtd">
<svg version="1.0" xmlns="http://www.w3.org/2000/svg"
 width="247.000000pt" height="36.000000pt" viewBox="0 0 247.000000 36.000000"
 preserveAspectRatio="xMidYMid meet">

<g transform="translate(0.000000,36.000000) scale(0.100000,-0.100000)"
fill="#000000" stroke="none">
<path d="M112 306 c-56 -28 -102 -54 -102 -57 0 -4 46 -31 102 -60 l103 -52
102 53 c57 29 103 56 103 59 0 4 -46 29 -103 57 l-102 51 -103 -51z m188 -11
c17 -9 30 -20 30 -25 0 -24 -113 -80 -161 -80 -37 0 -38 18 -1 26 48 10 81 26
108 51 l26 24 -29 -7 c-49 -12 -97 -34 -115 -54 -22 -23 -48 -26 -48 -6 0 20
52 56 103 72 54 17 53 17 87 -1z"/>
<path d="M500 180 l0 -130 45 0 45 0 0 67 0 67 68 -67 c65 -65 69 -67 118 -67
48 0 52 3 109 60 l60 61 5 -58 5 -58 48 -3 47 -3 0 130 0 131 -46 0 c-45 0
-48 -2 -138 -97 l-93 -97 -93 97 c-89 94 -94 97 -136 97 l-44 0 0 -130z"/>
<path d="M1180 297 c-45 -15 -74 -36 -88 -64 -18 -32 -17 -33 43 -33 30 0 55
4 55 9 0 34 192 41 228 8 12 -11 35 -17 70 -17 29 0 52 2 52 5 0 23 -36 65
-67 81 -47 23 -238 30 -293 11z"/>
<path d="M1570 179 l0 -130 48 3 47 3 5 72 5 73 125 -75 c103 -62 132 -75 168
-75 l42 0 0 130 0 130 -45 0 -45 0 0 -75 c0 -41 -3 -75 -6 -75 -4 0 -62 34
-130 75 -105 64 -129 75 -168 75 l-46 0 0 -131z"/>
<path d="M2050 180 l0 -130 45 0 45 0 0 65 c0 36 3 65 6 65 3 0 46 -29 96 -65
89 -64 92 -65 155 -65 34 0 63 2 63 5 0 3 -43 34 -96 69 l-96 64 87 59 88 58
-62 3 c-61 3 -63 2 -149 -57 l-87 -60 -3 59 -3 60 -44 0 -45 0 0 -130z"/>
<path d="M15 201 c-5 -10 41 -39 140 -89 l60 -30 103 55 c56 30 100 59 97 64
-4 5 -50 -13 -103 -40 l-97 -49 -97 49 c-53 27 -99 45 -103 40z"/>
<path d="M1080 154 c0 -13 24 -49 44 -66 52 -43 270 -52 349 -14 31 16 67 58
67 81 0 3 -23 5 -52 5 -35 0 -58 -6 -70 -17 -36 -33 -228 -26 -228 8 0 5 -25
9 -55 9 -30 0 -55 -3 -55 -6z"/>
<path d="M10 141 c0 -4 46 -32 103 -61 l103 -54 103 56 c59 32 98 59 92 62 -6
4 -53 -15 -104 -43 l-93 -50 -92 50 c-93 49 -112 56 -112 40z"/>
</g>
</svg>
